<svg width="600" height="600" viewBox="0 0 600 600" fill="none" xmlns="http://www.w3.org/2000/svg">
<g clip-path="url(#clip0_1_4)">
<rect width="600" height="600" rx="70" fill="#0E1B21"/>
<rect x="-54" y="563.55" width="808.177" height="60" transform="rotate(-25 -54 563.55)" fill="#1D3E4A"/>
<path d="M91.7427 334.636L89.3927 327.249C86.1786 320.357 81.4201 317.194 75.1174 317.761C70.293 318.369 66.7569 319.197 64.5093 320.245L64.2845 320.35C59.7892 322.446 56.2427 325.012 53.6449 328.048C50.9772 330.934 49.3832 333.775 48.863 336.571C47.7426 342.384 48.0756 347.793 49.8621 352.797C52.5172 358.491 57.3704 362.248 64.4215 364.068C71.4027 365.738 79.2232 366.47 87.883 366.263C96.6227 365.836 105.427 365.743 114.297 365.986C123.316 366.158 131.945 368.428 140.184 372.795C148.423 377.163 154.743 384.066 159.145 393.506C167.74 411.937 168.324 428.448 160.899 443.038C153.623 457.559 142.568 468.278 127.734 475.195C113.049 482.043 99.2996 484.441 86.4854 482.389C73.7511 480.118 64.7638 473.364 59.5233 462.126L59.4185 461.901C56.8332 456.357 55.4214 451.177 55.1831 446.363C55.0248 441.329 55.6902 437.279 57.1793 434.213C60.2376 427.861 63.7197 423.592 67.6257 421.406L70.2181 419.924C74.4137 417.967 78.7238 417.234 83.1484 417.725C87.5031 418.066 90.519 420.035 92.1959 423.631C93.0344 425.429 92.7592 427.382 91.3702 429.489C89.9812 431.596 89.0965 434.197 88.716 437.294C88.4854 440.32 88.6795 442.692 89.2982 444.41L90.0016 447.092C94.2639 456.233 101.289 460.345 111.078 459.429C114.564 459.08 117.206 458.487 119.004 457.648C127.245 453.805 132.686 448.259 135.325 441.008C138.113 433.687 137.726 426.206 134.163 418.564C129.9 409.424 122.546 403.823 112.099 401.763C104.298 400.292 96.2881 399.74 88.0678 400.108C79.9973 400.405 74.4838 400.513 71.5273 400.432C68.5708 400.351 65.3597 400.116 61.8939 399.725C58.4282 399.335 54.3483 398.41 49.6543 396.95C39.5271 394.01 31.9831 387.221 27.0221 376.582C21.9913 365.794 20.6859 355.366 23.106 345.298C27.3763 327.071 40.0005 313.067 60.9785 303.284C72.0669 298.114 82.4452 295.919 92.1135 296.701C101.712 297.333 108.258 301.396 111.752 308.888C114.267 314.282 114.79 319.511 113.32 324.575C112 329.568 108.943 333.183 104.148 335.419C101.9 336.467 99.4429 337.066 96.776 337.215C94.259 337.294 92.5812 336.434 91.7427 334.636ZM291.429 398.589C290.42 400.337 289.541 401.385 288.791 401.734C287.143 402.503 285.705 402.353 284.477 401.284C275.789 394.389 266.383 383.999 256.259 370.112C255.83 369.583 255.466 369.388 255.166 369.528L254.237 371.056C253.545 380.135 251.934 389.004 249.404 397.663C247.025 406.252 244.78 412.589 242.672 416.673L239.509 422.8C238.639 424.847 237.755 426.08 236.856 426.5C235.207 427.268 233.734 427.043 232.436 425.824C226.205 421.068 216.689 410.638 203.889 394.533L197.569 386.261C188.573 374.402 180.725 365.201 174.025 358.657C167.475 352.043 163.136 348.411 161.009 347.761L157.818 346.786C156.26 346.965 155.236 346.53 154.747 345.482C153.769 343.384 155.793 339.704 160.818 334.441C165.994 329.109 170.304 325.64 173.751 324.033C177.197 322.426 180.109 322.801 182.485 325.159C184.942 327.297 190.338 334.176 198.675 345.794C220.62 376.424 233.016 391.076 235.863 389.748C236.762 389.329 237.386 388.125 237.737 386.138C238.167 383.931 238.607 381.354 239.057 378.407C239.658 375.391 240.014 370.482 240.125 363.68C240.237 356.878 239.315 351.38 237.359 347.184C237.009 346.435 235.227 343.982 232.012 339.826C228.727 335.52 225.023 331.684 220.899 328.316C216.855 324.73 214.093 322.916 212.615 322.875C209.219 322.635 207.277 321.99 206.788 320.941C205.949 319.143 208.043 315.613 213.068 310.35C218.024 304.938 222.974 301.079 227.919 298.774C230.167 297.726 232.369 298.34 234.526 300.618C240.057 306.613 248.659 318.017 260.33 334.83C275.276 356.319 284.472 366.26 287.918 364.653C289.117 364.094 290.147 361.607 291.007 357.193C291.797 352.629 291.814 346.601 291.057 339.109C290.45 331.548 289.099 325.52 287.002 321.025C284.836 316.38 282.97 312.963 281.402 310.775C279.915 308.368 277.278 306.04 273.494 303.791C269.709 301.543 266.288 300.857 263.231 301.736C260.105 302.464 258.227 302.154 257.598 300.805C256.62 298.707 258.434 294.578 263.04 288.416C267.797 282.185 273.471 277.532 280.064 274.458C286.358 271.523 292.439 276.349 298.308 288.936C305.645 304.67 308.546 323.019 307.012 343.983C305.478 364.948 300.283 383.15 291.429 398.589ZM324.583 231.26L319.084 233.551C315.038 235.437 312.87 237.634 312.58 240.141C312.489 240.73 312.22 241.13 311.77 241.339C309.822 242.248 307.311 239.405 304.237 232.812C301.092 226.069 300.075 221.345 301.184 218.638C302.444 215.862 305.546 213.321 310.491 211.015C315.585 208.639 319.451 207.931 322.087 208.891C324.654 209.701 326.881 212.129 328.767 216.174C330.654 220.22 331.307 223.382 330.727 225.659C330.077 227.786 328.029 229.653 324.583 231.26ZM359.53 353.151L337.582 299.628C331.783 287.191 326.412 279.389 321.468 276.221C319.871 275.142 318.298 274.507 316.749 274.317C315.711 274.436 314.982 274.047 314.562 273.148C313.305 270.45 315.903 266.046 322.357 259.936C328.811 253.825 333.761 249.966 337.208 248.359C340.804 246.682 343.096 246.707 344.085 248.436C345.482 251.432 349.015 260.183 354.684 274.688C360.433 288.972 366.906 303.832 374.103 319.265C381.3 334.699 386.671 343.87 390.216 346.778C391.015 347.317 391.589 347.962 391.938 348.711C392.847 350.659 390.454 352.96 384.76 355.615C379.066 358.271 372.523 359.497 365.132 359.295C363.284 359.245 361.417 357.197 359.53 353.151ZM404.395 298.573C397.637 283.299 391.987 270.792 387.446 261.053C382.904 251.313 377.898 242.337 372.427 234.125C371.728 232.627 372.877 231.179 375.874 229.781C378.871 228.384 381.593 227.571 384.04 227.342C386.637 227.043 388.594 227.133 389.913 227.613C393.428 228.892 395.336 229.462 395.635 229.323C396.085 229.113 396.969 227.88 398.288 225.623C402.385 219.152 407.955 214.274 414.998 210.99C422.19 207.636 429.247 206.535 436.169 207.685C443.24 208.766 449.262 211.704 454.235 216.5C462.962 224.653 469.946 234.349 475.186 245.587C480.357 256.675 483.505 268.707 484.629 281.682C485.177 288.724 484.186 295.206 481.657 301.128C479.059 306.9 474.837 311.149 468.993 313.874C457.456 319.254 448.577 315.276 442.359 301.94C440.682 298.344 440.592 296.197 442.091 295.498C442.39 295.358 443.389 295.348 445.087 295.469C446.865 295.369 448.428 295.005 449.777 294.376C460.416 289.415 460.495 275.697 450.014 253.22C439.463 230.594 428.494 221.936 417.106 227.246C413.959 228.714 411.611 230.721 410.062 233.267C408.593 235.594 407.873 237.571 407.903 239.199L408.052 241.866C412.243 256.33 423.317 282.817 441.274 321.327C449.379 338.709 455.479 351.006 459.572 358.219C463.884 365.511 466.39 369.907 467.089 371.405C467.787 372.904 467.967 374.462 467.627 376.08C466.447 381.373 464.008 386.706 460.311 392.079C456.683 397.601 452.922 401.271 449.026 403.087C447.527 403.786 446.324 403.161 445.416 401.213C440.756 384.961 427.082 350.748 404.395 298.573ZM518.149 217.891L520.994 223.405C521.413 224.304 522.222 224.474 523.421 223.915C528.006 221.23 531.643 218.075 534.331 214.45C536.949 210.675 538.563 207.095 539.173 203.709C540.184 196.488 539.896 190.785 538.309 186.599L537.277 183.797C533.503 175.706 528.395 173.162 521.952 176.167C517.157 178.403 514.239 182.317 513.199 187.91C511.328 196.809 512.979 206.803 518.149 217.891ZM581.087 224.936C583.743 230.63 584.885 236.209 584.513 241.672C584.222 246.916 583.067 251.286 581.049 254.781C579.11 258.056 576.472 261.202 573.135 264.217C568.889 268.022 564.518 270.972 560.023 273.068C547.436 278.937 535.945 278.549 525.549 271.904C515.154 265.259 506.567 254.669 499.789 240.134C492.942 225.45 490.534 210.701 492.566 195.89C494.748 181.008 503.256 170.108 518.09 163.191C531.576 156.902 542.918 157.36 552.115 164.564C555.74 167.252 558.321 170.244 559.858 173.541C561.325 176.688 562.363 179.305 562.972 181.393C563.511 183.33 563.754 186.592 563.703 191.176C563.652 195.761 562.826 200.25 561.227 204.644C559.628 209.039 556.235 214.087 551.05 219.788C545.864 225.49 539.135 230.817 530.864 235.769C529.665 236.328 529.31 237.131 529.799 238.18C530.428 239.529 531.821 241.342 533.978 243.62C536.215 245.678 538.351 247.327 540.389 248.566C545.642 251.225 551.49 251.052 557.933 248.047C564.376 245.042 568.867 240.394 571.406 234.102C572.756 230.737 573.411 227.056 573.372 223.061C573.413 221.583 573.882 220.634 574.781 220.215C575.83 219.726 577.039 220.166 578.407 221.534C579.775 222.903 580.668 224.037 581.087 224.936Z" fill="#EEE7BD"/>
<rect x="10" y="657.55" width="808.177" height="60" transform="rotate(-25 10 657.55)" fill="#EEE7BD"/>
<rect x="403" y="603.827" width="316.661" height="60" transform="rotate(-25 403 603.827)" fill="#1D3E4A"/>
</g>
<defs>
<clipPath id="clip0_1_4">
<rect width="600" height="600" rx="70" fill="white"/>
</clipPath>
</defs>
</svg>
